<svg width="55" height="42" viewBox="0 0 55 42" fill="none" xmlns="http://www.w3.org/2000/svg">
<path d="M18.0043 41.4525C17.8698 41.4594 17.7354 41.4361 17.612 41.3846C17.4887 41.333 17.3799 41.2545 17.2943 41.1555L17.1523 40.9665L17.2233 40.6425C19.474 34.6823 21.1496 25.9073 16.2932 17.976C14.2768 14.682 11.3232 12.711 8.39091 12.711C7.65864 12.6996 6.93211 12.8356 6.25907 13.1102C5.58604 13.3847 4.98175 13.7916 4.48591 14.304C1.90151 17.004 2.31332 19.3733 2.61152 20.2778C2.64853 20.3574 2.70598 20.4269 2.7786 20.4799C2.85122 20.5329 2.93669 20.5677 3.02715 20.5812C3.11761 20.5946 3.21016 20.5862 3.29633 20.5568C3.3825 20.5274 3.45952 20.4779 3.52031 20.4128C3.66527 20.2319 3.79807 20.0426 3.91791 19.8458C4.06405 19.6099 4.22777 19.3844 4.40781 19.1708C4.7781 18.7669 5.23535 18.4433 5.74861 18.2221C6.26187 18.0008 6.81915 17.887 7.38272 17.8883C8.24152 17.885 9.07661 18.156 9.75411 18.6578C10.2031 19.0052 10.5613 19.4469 10.8003 19.9482C11.0393 20.4496 11.1527 20.9967 11.1315 21.5468C11.0481 22.7812 10.48 23.9409 9.53984 24.796C8.59964 25.6511 7.3559 26.1393 6.05501 26.1638C5.21165 26.1552 4.38222 25.9583 3.63361 25.589C2.88501 25.2196 2.23818 24.6882 1.74531 24.0375C0.760336 22.6643 0.262798 21.0276 0.325315 19.3665C0.438915 15.5123 3.51322 9.24153 11.309 8.91078C13.2525 8.91064 15.1647 9.37552 16.8696 10.2626C18.5744 11.1497 20.017 12.4304 21.0644 13.9868C28.0508 24.4628 19.4101 40.3118 19.0409 40.9868C18.927 41.141 18.7728 41.2644 18.5936 41.3449C18.4143 41.4253 18.2162 41.4601 18.0185 41.4458" fill="#D5FA3B"/>
<path d="M32.68 41.4999C32.4575 41.52 32.2335 41.483 32.0312 41.3927C31.8289 41.3025 31.6558 41.1624 31.5298 40.9869C31.0612 40.0756 20.2337 18.6174 29.5418 6.08263C30.7005 4.42651 32.2706 3.0674 34.1133 2.12554C35.956 1.18367 38.0145 0.688092 40.1066 0.682632C42.4669 0.723556 44.7823 1.30285 46.8581 2.37178C48.9338 3.44071 50.7091 4.968 52.0346 6.82513C53.9161 9.35638 54.6119 11.3139 54.6048 14.0476C54.6048 19.2384 51.0548 21.4186 48.016 21.6954C47.0431 21.8243 46.0518 21.7285 45.1261 21.4159C44.2004 21.1034 43.3675 20.5834 42.6981 19.8999C42.1813 19.3457 41.7953 18.6926 41.5663 17.9847C41.3373 17.2768 41.2705 16.5304 41.3704 15.7959C41.4906 14.737 42.0225 13.7589 42.8617 13.0534C43.701 12.348 44.7871 11.9659 45.9073 11.9821C48.0373 11.9821 49.649 13.0689 50.6998 15.1546C50.998 15.7419 51.6938 15.6069 51.9281 15.0331C52.8511 12.8259 52.3044 10.4904 50.3093 8.08738C49.6449 7.24618 48.7887 6.55897 47.8049 6.07732C46.8212 5.59567 45.7355 5.3321 44.6293 5.30638C41.6757 5.30638 38.6795 7.13563 35.9602 10.5984C27.0639 21.9451 33.5462 40.4874 33.6101 40.6696C33.6422 40.7581 33.6518 40.8525 33.6382 40.9452C33.6247 41.0378 33.5883 41.1261 33.532 41.2029C33.4278 41.314 33.2979 41.4005 33.1525 41.4555C33.0071 41.5106 32.8502 41.5327 32.6942 41.5201" fill="white"/>
</svg>
