<svg width="76" height="75" viewBox="0 0 76 75" fill="none" xmlns="http://www.w3.org/2000/svg">
<path d="M63.1654 23.3112C62.1362 23.3112 61.2972 24.3513 61.2972 25.6343C61.2972 26.9128 62.1362 27.953 63.1654 27.953C64.2001 27.953 65.0409 26.9128 65.0409 25.6343C65.0409 24.3513 64.2001 23.3112 63.1654 23.3112ZM63.1654 30.8018C60.8677 30.8018 58.9986 28.4831 58.9986 25.6343C58.9986 22.7811 60.8677 20.4624 63.1654 20.4624C65.4659 20.4624 67.3396 22.7811 67.3396 25.6343C67.3396 28.4831 65.4668 30.8018 63.1654 30.8018Z" fill="white"/>
<path d="M68.8703 39.485L66.8155 38.2119C67.0849 37.538 67.2278 36.7795 67.2278 36.0054C67.2278 33.2308 65.4087 30.9742 63.1737 30.9742C60.9351 30.9742 59.1169 33.2308 59.1169 36.0054C59.1169 36.7739 59.2589 37.538 59.5274 38.2208L57.4626 39.4761C57.0403 38.4068 56.8192 37.2039 56.8192 36.0043C56.8192 31.6559 59.6675 28.1228 63.1737 28.1228C66.6772 28.1228 69.5264 31.6559 69.5264 36.0043C69.5246 37.2139 69.2998 38.4202 68.8703 39.485Z" fill="white"/>
<path d="M63.0345 52.7375L57.4516 39.4324L59.4919 38.1194L63.0827 46.6791L66.8419 38.1305L68.863 39.4937L63.0345 52.7375Z" fill="white"/>
<path d="M6.61446 49.3633C5.58161 49.3633 4.74532 50.4057 4.74532 51.6842C4.74532 52.965 5.58161 54.004 6.61446 54.004C7.6464 54.004 8.48997 52.965 8.48997 51.6842C8.48997 50.4046 7.6464 49.3633 6.61446 49.3633ZM6.61446 56.8506C4.3158 56.8506 2.44666 54.533 2.44666 51.6831C2.44666 48.831 4.3158 46.5134 6.61446 46.5134C8.91585 46.5134 10.7895 48.831 10.7895 51.6831C10.7895 54.533 8.91403 56.8506 6.61446 56.8506Z" fill="white"/>
<path d="M0.906972 65.5265C0.479272 64.4327 0.260872 63.2665 0.260872 62.0569C0.260872 57.7118 3.1119 54.1765 6.61722 54.1765C8.62559 54.1765 10.4729 55.3193 11.6896 57.3053L9.85682 59.0273C9.07968 57.7575 7.90123 57.0313 6.61631 57.0313C4.37953 57.0313 2.55953 59.2857 2.55953 62.058C2.55953 62.8321 2.69876 63.5817 2.9754 64.279L0.906972 65.5265Z" fill="white"/>
<path d="M19.1762 49.3633C18.1424 49.3633 17.3079 50.4057 17.3079 51.6842C17.3079 52.965 18.1424 54.004 19.1762 54.004C20.2081 54.004 21.0471 52.965 21.0471 51.6842C21.0471 50.4046 20.2081 49.3633 19.1762 49.3633ZM19.1762 56.8506C16.8784 56.8506 15.0074 54.533 15.0074 51.6831C15.0074 48.831 16.8784 46.5134 19.1762 46.5134C21.4766 46.5134 23.3467 48.831 23.3467 51.6831C23.3467 54.533 21.4766 56.8506 19.1762 56.8506Z" fill="white"/>
<path d="M15.8603 59.1762L13.9793 57.5306C15.1732 55.4293 17.1179 54.1748 19.1827 54.1748C21.2466 54.1748 23.1894 55.4271 24.3806 57.5251L22.4996 59.164C20.9772 56.4922 17.3818 56.4956 15.8603 59.1762Z" fill="white"/>
<path d="M31.7404 49.3633C30.7085 49.3633 29.8686 50.4057 29.8686 51.6842C29.8686 52.965 30.7085 54.004 31.7404 54.004C32.7724 54.004 33.6114 52.965 33.6114 51.6842C33.6114 50.4046 32.7724 49.3633 31.7404 49.3633ZM31.7404 56.8506C29.439 56.8506 27.5699 54.533 27.5699 51.6831C27.5699 48.831 29.44 46.5134 31.7404 46.5134C34.0391 46.5134 35.911 48.831 35.911 51.6831C35.911 54.533 34.0391 56.8506 31.7404 56.8506Z" fill="white"/>
<path d="M35.0612 59.1697C33.5397 56.4912 29.9433 56.4912 28.4245 59.1697L26.5399 57.524C27.7339 55.4328 29.6785 54.1782 31.7451 54.1782C33.809 54.1782 35.7519 55.4305 36.9403 57.533L35.0612 59.1697Z" fill="white"/>
<path d="M44.3012 49.3633C43.2693 49.3633 42.4294 50.4057 42.4294 51.6842C42.4294 52.965 43.2693 54.004 44.3012 54.004C45.3332 54.004 46.1695 52.965 46.1695 51.6842C46.1695 50.4046 45.3323 49.3633 44.3012 49.3633ZM44.3012 56.8506C42.0017 56.8506 40.1289 54.533 40.1289 51.6831C40.1289 48.831 42.0017 46.5134 44.3012 46.5134C46.5999 46.5134 48.469 48.831 48.469 51.6831C48.469 54.533 46.5999 56.8506 44.3012 56.8506Z" fill="white"/>
<path d="M40.9815 59.1697L39.1006 57.524C40.2936 55.4328 42.2391 54.1782 44.3048 54.1782C46.3687 54.1782 48.3116 55.4305 49.5028 57.524L47.6218 59.163C46.1003 56.4856 42.5021 56.4912 40.9815 59.1697Z" fill="white"/>
<path d="M56.8612 49.3633C55.831 49.3633 54.9929 50.4057 54.9929 51.6842C54.9929 52.965 55.831 54.004 56.8612 54.004C57.8931 54.004 58.7349 52.965 58.7349 51.6842C58.7349 50.4046 57.8931 49.3633 56.8612 49.3633ZM56.8612 56.8506C54.5634 56.8506 52.6934 54.533 52.6934 51.6831C52.6934 48.831 54.5634 46.5134 56.8612 46.5134C59.1626 46.5134 61.0344 48.831 61.0344 51.6831C61.0335 54.533 59.1626 56.8506 56.8612 56.8506Z" fill="white"/>
<path d="M53.544 59.1697L51.6621 57.533C52.8505 55.4328 54.7989 54.1782 56.8673 54.1782C58.9303 54.1782 60.8758 55.4305 62.0689 57.524L60.1879 59.1697C58.66 56.4801 55.0573 56.5001 53.544 59.1697Z" fill="white"/>
<path d="M69.4245 49.3633C68.3944 49.3633 67.5526 50.4057 67.5526 51.6842C67.5526 52.965 68.3944 54.004 69.4245 54.004C70.4583 54.004 71.2991 52.965 71.2991 51.6842C71.2991 50.4046 70.4583 49.3633 69.4245 49.3633ZM69.4245 56.8506C67.124 56.8506 65.254 54.533 65.254 51.6831C65.254 48.831 67.124 46.5134 69.4245 46.5134C71.7268 46.5134 73.5987 48.831 73.5987 51.6831C73.5978 54.533 71.7268 56.8506 69.4245 56.8506Z" fill="white"/>
<path d="M75.1267 65.5359L73.0674 64.2673C73.3431 63.5834 73.4833 62.8427 73.4833 62.0563C73.4833 59.2851 71.6632 57.0296 69.4292 57.0296C68.1106 57.0296 66.8685 57.8271 66.1059 59.1682L64.224 57.523C65.4179 55.4324 67.3671 54.1782 69.4301 54.1782C72.9345 54.1782 75.7837 57.7102 75.7837 62.0552C75.7819 63.2827 75.5617 64.45 75.1267 65.5359Z" fill="white"/>
<path d="M12.8963 58.808C11.8662 58.808 11.0262 59.8538 11.0262 61.1334C11.0262 62.4096 11.8662 63.4487 12.8963 63.4487C13.931 63.4487 14.77 62.4096 14.77 61.1334C14.7691 59.8549 13.931 58.808 12.8963 58.808ZM12.8963 66.2997C10.5976 66.2997 8.72758 63.9799 8.72758 61.1334C8.72758 58.2812 10.5976 55.9592 12.8963 55.9592C15.1986 55.9592 17.0696 58.2812 17.0696 61.1334C17.0696 63.9799 15.1977 66.2997 12.8963 66.2997Z" fill="white"/>
<path d="M18.5992 74.9824L16.538 73.7137C16.8137 73.0243 16.9548 72.2847 16.9548 71.505C16.9548 68.7316 15.1366 66.4761 12.9007 66.4761C10.664 66.4761 8.84215 68.7305 8.84215 71.505C8.84215 72.2791 8.98138 73.0243 9.2562 73.7215L7.1905 74.969C6.7628 73.8786 6.54349 72.7124 6.54349 71.5028C6.54349 67.1589 9.39452 63.6213 12.9026 63.6213C16.4061 63.6213 19.258 67.1589 19.258 71.5028C19.2535 72.7258 19.0341 73.8931 18.5992 74.9824Z" fill="white"/>
<path d="M25.4598 58.808C24.4252 58.808 23.5852 59.8538 23.5852 61.1334C23.5852 62.4096 24.4252 63.4487 25.4598 63.4487C26.4918 63.4487 27.3317 62.4096 27.3317 61.1334C27.3317 59.8549 26.4918 58.808 25.4598 58.808ZM25.4598 66.2997C23.1575 66.2997 21.2857 63.9799 21.2857 61.1334C21.2857 58.2812 23.1566 55.9592 25.4598 55.9592C27.7585 55.9592 29.6304 58.2812 29.6304 61.1334C29.6304 63.9799 27.7585 66.2997 25.4598 66.2997Z" fill="white"/>
<path d="M31.1609 74.9824L29.0979 73.7137C29.3746 73.0265 29.5147 72.2847 29.5147 71.505C29.5147 68.7316 27.6993 66.4761 25.4643 66.4761C23.2275 66.4761 21.4066 68.7305 21.4066 71.505C21.4066 72.2858 21.5422 73.0332 21.8189 73.7215L19.7532 74.9724C19.3273 73.8908 19.1089 72.7224 19.1089 71.5028C19.1089 67.1589 21.9572 63.6213 25.4652 63.6213C28.9687 63.6213 31.8152 67.1589 31.8152 71.5028C31.8125 72.7258 31.5932 73.8953 31.1609 74.9824Z" fill="white"/>
<path d="M38.0203 58.808C36.9883 58.808 36.1502 59.8538 36.1502 61.1334C36.1502 62.4096 36.9874 63.4487 38.0203 63.4487C39.0531 63.4487 39.8921 62.4096 39.8921 61.1334C39.8921 59.8549 39.0522 58.808 38.0203 58.808ZM38.0203 66.2997C35.7198 66.2997 33.8497 63.9799 33.8497 61.1334C33.8497 58.2812 35.7198 55.9592 38.0203 55.9592C40.3217 55.9592 42.1908 58.2812 42.1908 61.1334C42.1908 63.9799 40.3217 66.2997 38.0203 66.2997Z" fill="white"/>
<path d="M43.7217 74.9824L41.6597 73.7137C41.939 73.0243 42.0792 72.2847 42.0792 71.505C42.0792 68.7316 40.261 66.4761 38.026 66.4761C35.7865 66.4761 33.9656 68.7305 33.9656 71.505C33.9656 72.2791 34.1057 73.0243 34.3824 73.7215L32.3167 74.9724C31.8863 73.8819 31.666 72.7146 31.666 71.5028C31.666 67.1589 34.5198 63.6213 38.0269 63.6213C41.5295 63.6213 44.3796 67.1589 44.3796 71.5028C44.3787 72.7258 44.1585 73.8931 43.7217 74.9824Z" fill="white"/>
<path d="M50.5804 58.808C49.5503 58.808 48.7122 59.8538 48.7122 61.1334C48.7122 62.4096 49.5503 63.4487 50.5804 63.4487C51.6123 63.4487 52.4541 62.4096 52.4541 61.1334C52.4541 59.8549 51.6123 58.808 50.5804 58.808ZM50.5804 66.2997C48.2826 66.2997 46.4126 63.9799 46.4126 61.1334C46.4126 58.2812 48.2826 55.9592 50.5804 55.9592C52.8809 55.9592 54.7546 58.2812 54.7546 61.1334C54.7536 63.9799 52.8809 66.2997 50.5804 66.2997Z" fill="white"/>
<path d="M56.2812 74.9867L54.2246 73.7103C54.4994 73.0275 54.6396 72.2857 54.6396 71.506C54.6396 68.7292 52.8223 66.4715 50.5855 66.4715C48.3506 66.4715 46.5297 68.7281 46.5297 71.506C46.5297 72.2801 46.668 73.0275 46.941 73.7248L44.8744 74.97C44.4467 73.8818 44.2292 72.7201 44.2292 71.5038C44.2292 67.1598 47.083 63.6223 50.5874 63.6223C54.09 63.6223 56.941 67.1598 56.941 71.5038C56.9382 72.7312 56.7153 73.8996 56.2812 74.9867Z" fill="white"/>
<path d="M63.1437 58.808C62.1136 58.808 61.2746 59.8538 61.2746 61.1334C61.2746 62.4096 62.1136 63.4487 63.1437 63.4487C64.1784 63.4487 65.0174 62.4096 65.0174 61.1334C65.0165 59.8549 64.1775 58.808 63.1437 58.808ZM63.1437 66.2997C60.8451 66.2997 58.9723 63.9799 58.9723 61.1334C58.9723 58.2812 60.8451 55.9592 63.1437 55.9592C65.446 55.9592 67.317 58.2812 67.317 61.1334C67.3161 63.9799 65.446 66.2997 63.1437 66.2997Z" fill="white"/>
<path d="M68.8438 74.9867L66.7863 73.7103C67.0621 73.0275 67.2013 72.2857 67.2013 71.506C67.2013 68.7292 65.3822 66.4715 63.1482 66.4715C60.9096 66.4715 59.0877 68.7281 59.0877 71.506C59.0877 72.2801 59.2261 73.0253 59.5054 73.7225L57.4388 74.9734C57.0066 73.8829 56.7882 72.7212 56.7882 71.5038C56.7882 67.1598 59.6401 63.6223 63.1473 63.6223C66.6498 63.6223 69.5009 67.1598 69.5009 71.5038C69.5018 72.7312 69.2797 73.8996 68.8438 74.9867Z" fill="white"/>
<path d="M59.2763 42.3237H16.9459C14.9257 42.3237 13.2786 40.2846 13.2786 37.7799V4.69825C13.2786 2.1936 14.9257 0.151123 16.9459 0.151123H59.098C61.1182 0.151123 62.7671 2.19249 62.7671 4.69825V22.5092H60.4666V4.69825C60.4666 3.76388 59.8506 3.00324 59.098 3.00324H16.9459C16.1906 3.00324 15.5781 3.76388 15.5781 4.69825V37.781C15.5781 38.7165 16.1915 39.4749 16.9459 39.4749H59.2763V42.3237Z" fill="white"/>
<path d="M61.268 8.10059H14.8426V10.9559H61.268V8.10059Z" fill="white"/>
</svg>
