<svg width="67" height="67" viewBox="0 0 67 67" fill="none" xmlns="http://www.w3.org/2000/svg">
<path d="M66.3473 66.4688H1.24573C0.933098 66.4688 0.679626 66.2169 0.679626 65.9063V1.21875C0.679626 0.908109 0.933098 0.65625 1.24573 0.65625H66.3473C66.6599 0.65625 66.9134 0.908109 66.9134 1.21875V65.9063C66.9134 66.2169 66.6599 66.4688 66.3473 66.4688ZM1.81183 65.3438H65.7812V1.78125H1.81183V65.3438Z" fill="#7DB621"/>
<path d="M66.3473 15.8438H1.24573C0.933098 15.8438 0.679626 15.5919 0.679626 15.2813V1.21875C0.679626 0.908109 0.933098 0.65625 1.24573 0.65625H66.3473C66.6599 0.65625 66.9134 0.908109 66.9134 1.21875V15.2813C66.9134 15.5919 66.6599 15.8438 66.3473 15.8438ZM1.81183 14.7188H65.7812V1.78125H1.81183V14.7188Z" fill="#7DB621"/>
<path d="M9.73724 11.625C7.8643 11.625 6.34064 10.111 6.34064 8.25C6.34064 6.38897 7.8643 4.875 9.73724 4.875C11.6102 4.875 13.1338 6.38897 13.1338 8.25C13.1338 10.111 11.6102 11.625 9.73724 11.625ZM9.73724 6C8.48871 6 7.47284 7.00941 7.47284 8.25C7.47284 9.49059 8.48871 10.5 9.73724 10.5C10.9858 10.5 12.0016 9.49059 12.0016 8.25C12.0016 7.00941 10.9858 6 9.73724 6Z" fill="#7DB621"/>
<path d="M21.0593 11.625C19.1863 11.625 17.6627 10.111 17.6627 8.25C17.6627 6.38897 19.1863 4.875 21.0593 4.875C22.9322 4.875 24.4559 6.38897 24.4559 8.25C24.4559 10.111 22.9322 11.625 21.0593 11.625ZM21.0593 6C19.8107 6 18.7949 7.00941 18.7949 8.25C18.7949 9.49059 19.8107 10.5 21.0593 10.5C22.3078 10.5 23.3237 9.49059 23.3237 8.25C23.3237 7.00941 22.3078 6 21.0593 6Z" fill="#7DB621"/>
<path d="M11.1526 41.1562C10.9951 41.1562 10.8383 41.0912 10.7263 40.9641C10.5204 40.7304 10.5443 40.375 10.7795 40.1703L22.1016 30.3265C22.3366 30.1219 22.6944 30.1454 22.9003 30.3794C23.1062 30.6131 23.0823 30.9685 22.8471 31.1731L11.5251 41.0169C11.4178 41.1104 11.2851 41.1562 11.1526 41.1562Z" fill="#7DB621"/>
<path d="M22.4743 51C22.342 51 22.2091 50.9541 22.1018 50.8609L10.7798 41.0172C10.5445 40.8125 10.5207 40.4572 10.7266 40.2233C10.9325 39.9895 11.29 39.966 11.5254 40.1703L22.8474 50.0141C23.0828 50.2187 23.1065 50.574 22.9006 50.8079C22.7887 50.935 22.6319 51 22.4743 51Z" fill="#7DB621"/>
<path d="M56.4402 41.1562C56.3079 41.1562 56.1751 41.1104 56.0677 41.0171L44.7457 31.1734C44.5103 30.9688 44.4865 30.6134 44.6923 30.3797C44.8982 30.146 45.2559 30.1222 45.4912 30.3268L56.8133 40.1706C57.0486 40.3752 57.0724 40.7305 56.8666 40.9644C56.7547 41.0912 56.5977 41.1562 56.4402 41.1562Z" fill="#7DB621"/>
<path d="M45.1187 50.9999C44.9611 50.9999 44.8043 50.9349 44.6923 50.8078C44.4865 50.5741 44.5103 50.2187 44.7457 50.014L56.0677 40.1702C56.3031 39.9658 56.6606 39.9894 56.8666 40.2233C57.0724 40.457 57.0486 40.8123 56.8133 41.0171L45.4912 50.8608C45.3838 50.9541 45.2511 50.9999 45.1187 50.9999Z" fill="#7DB621"/>
<path d="M26.7199 56.6251C26.6415 56.6251 26.562 56.6089 26.486 56.5746C26.2014 56.4461 26.0756 56.1125 26.2049 55.8297L40.3574 24.8922C40.4868 24.6093 40.8225 24.4844 41.1071 24.613C41.3917 24.7415 41.5175 25.075 41.3882 25.3578L27.2357 56.2953C27.1407 56.5026 26.9351 56.6251 26.7199 56.6251Z" fill="#7DB621"/>
</svg>
