<svg width="33" height="32" viewBox="0 0 33 32" fill="none" xmlns="http://www.w3.org/2000/svg">
<path d="M32.9454 14.4305L32.9401 14.3865V14.3821L32.9387 14.3781C32.6926 11.5894 31.6677 8.91436 29.9705 6.63073C29.8752 6.49867 29.7532 6.38599 29.6118 6.29925C29.4703 6.21251 29.3122 6.15343 29.1466 6.12545C28.9809 6.09747 28.8111 6.10115 28.647 6.13627C28.4829 6.17139 28.3278 6.23726 28.1906 6.33003C28.0534 6.42281 27.937 6.54065 27.848 6.6767C27.759 6.81275 27.6993 6.9643 27.6723 7.12255C27.6454 7.28079 27.6517 7.44256 27.6908 7.59846C27.73 7.75437 27.8014 7.90129 27.9007 8.03069C29.1048 9.66597 29.9047 11.54 30.2402 13.5121C28.7183 13.757 27.2164 14.1042 25.7458 14.551C25.1877 14.6736 24.6675 14.9193 24.2271 15.2683C23.7867 15.6173 23.4383 16.0599 23.2099 16.5605C23.0694 17.0529 23.045 17.5689 23.1387 18.0714C23.1651 18.2264 23.1776 18.3833 23.1758 18.5404C22.9965 18.6828 22.777 18.7718 22.5449 18.7961C22.3689 18.828 22.1905 18.8498 22.0108 18.8723C21.4157 18.9201 20.8328 19.0598 20.2847 19.2858C18.0177 20.2863 17.7774 23.0252 17.6869 24.0565C17.6721 24.2232 17.6938 24.391 17.7506 24.5493C17.8074 24.7076 17.898 24.853 18.0168 24.9761C18.1356 25.0993 18.2799 25.1977 18.4406 25.2649C18.6013 25.3322 18.7749 25.3669 18.9504 25.3669L19.0111 25.3657L23.7618 25.1348C24.4188 25.1332 25.0625 24.9589 25.6221 24.631L25.7758 24.5494C26.2219 24.3586 26.7076 24.2668 27.1963 24.2809C23.8621 27.825 20.8669 29.1532 16.5332 29.0329C15.6314 29.0254 14.7319 28.9434 13.8449 28.7878C11.4283 28.3469 9.17876 27.3 7.32776 25.755C7.37853 25.7509 7.42219 25.7523 7.47435 25.747C7.48362 25.7461 7.4906 25.7404 7.49973 25.7393C9.00522 25.5875 10.4618 25.142 11.7788 24.4304C12.1395 24.2532 12.4503 23.996 12.6849 23.6804C12.9449 23.2757 13.0786 22.8088 13.0703 22.3343L13.2226 18.7584C13.2294 18.5981 13.2027 18.4382 13.144 18.2879C13.0854 18.1376 12.996 17.9999 12.881 17.8829C12.766 17.7658 12.6278 17.6717 12.4743 17.606C12.3208 17.5403 12.1552 17.5044 11.987 17.5003L10.4005 17.4624C10.4138 17.1403 10.4565 16.82 10.5281 16.505C11.8543 16.4236 13.1797 16.326 14.5042 16.2121C15.2031 16.187 15.8895 16.0277 16.5222 15.7436C17.0684 15.442 17.5323 15.0219 17.876 14.5172C18.2197 14.0126 18.4336 13.4377 18.5003 12.8394C18.5956 11.8982 18.5313 10.9484 18.3099 10.0267C18.2751 9.68468 18.1681 9.35295 17.9953 9.05138C17.8226 8.74981 17.5877 8.48464 17.3047 8.27178C16.9542 8.05688 16.5555 7.92353 16.1409 7.8825L14.9214 7.70649L14.8904 6.37984C14.8833 6.07273 14.754 5.77967 14.5287 5.56001C14.3034 5.34035 13.9989 5.21051 13.677 5.19678C12.4338 5.14464 11.1856 5.14839 9.93804 5.18698C9.89333 5.17764 9.84813 5.17066 9.80262 5.16605C9.59054 5.17379 9.3772 5.19496 9.16474 5.20536L9.14646 5.20645C8.72265 5.22726 8.29871 5.25339 7.87464 5.28484C10.1777 3.55777 12.992 2.56405 15.9197 2.44406C18.8475 2.32406 21.7408 3.08387 24.1909 4.61613C24.3302 4.7035 24.4861 4.76388 24.6498 4.79381C24.8135 4.82374 24.9818 4.82264 25.1451 4.79058C25.3084 4.75852 25.4635 4.69611 25.6014 4.60693C25.7394 4.51775 25.8576 4.40354 25.9493 4.27083C26.0409 4.13811 26.1043 3.98948 26.1357 3.83343C26.1671 3.67738 26.1659 3.51697 26.1323 3.36134C26.0987 3.20571 26.0332 3.05793 25.9396 2.92642C25.8461 2.79491 25.7262 2.68225 25.587 2.59488C22.8871 0.906884 19.7298 0.00518185 16.501 2.68224e-07C12.3986 -0.000721534 8.44307 1.45538 5.40621 4.08421C2.36934 6.71303 0.468988 10.326 0.075934 14.2181C-0.31712 18.1103 0.825322 22.0024 3.28036 25.135C5.73539 28.2677 9.32688 30.4162 13.3541 31.1613C14.3796 31.3434 15.4198 31.4405 16.4629 31.4516C16.6675 31.4575 16.869 31.4604 17.0721 31.4604C21.8314 31.4604 25.4654 29.7623 29.1303 25.854C29.6612 25.2678 30.1385 24.6393 30.5569 23.9756L30.7875 23.6106C30.8023 23.5864 30.8172 23.5622 30.8308 23.5367C32.1167 21.4037 32.8501 19.009 32.9701 16.5515C32.9975 16.2811 33 15.9963 33 15.7258C33 15.2903 32.9864 14.8534 32.9454 14.4305ZM5.16309 7.99149C5.80706 7.9044 6.45636 7.83424 7.1068 7.77375C7.48463 7.73952 7.86322 7.71194 8.24206 7.68641C8.49399 7.66875 8.74528 7.65387 8.99696 7.64008C10.1233 7.5819 11.2521 7.55794 12.3787 7.57875L12.4059 8.77791C12.413 9.06261 12.5251 9.33582 12.7225 9.54958C12.92 9.76335 13.1901 9.90399 13.4855 9.94682L15.7598 10.2752L15.7746 10.2769C15.7858 10.3253 15.7982 10.3845 15.8107 10.4536C15.9769 11.1253 16.0362 11.817 15.9866 12.5055C15.9706 12.7232 15.904 12.9347 15.7917 13.1248C15.6794 13.3149 15.5241 13.4789 15.3372 13.6048C14.9979 13.7279 14.6391 13.7948 14.2763 13.8027C12.6823 13.9398 11.0863 14.0531 9.48837 14.1428C9.24194 14.1566 9.00505 14.2385 8.80669 14.3785C8.60833 14.5186 8.45711 14.7107 8.37152 14.9314C7.8926 16.1734 7.74608 17.5096 7.94521 18.8191C7.9882 19.1016 8.13474 19.3606 8.35887 19.55C8.58299 19.7394 8.87023 19.8471 9.16969 19.854L10.6347 19.8888L10.5343 22.2344C10.5331 22.2639 10.5331 22.294 10.5319 22.3241L10.5231 22.3282C9.49428 22.8796 8.35823 23.2251 7.18448 23.3436C7.12711 23.3496 7.07787 23.3504 7.02228 23.3557C6.69023 23.3848 6.35665 23.3951 6.02332 23.3863C6.00657 23.3856 5.98741 23.3863 5.97078 23.3863C5.80159 23.3784 5.63246 23.4031 5.47353 23.4589C5.39347 23.4925 5.31785 23.535 5.24825 23.5856C3.50383 21.3299 2.55566 18.6046 2.54033 15.8024C2.52501 13.0002 3.44331 10.2657 5.16296 7.99282L5.16309 7.99149ZM24.6193 22.3956L24.3763 22.5231C24.265 22.5881 24.1466 22.6414 24.0231 22.6821C23.9676 22.6953 23.9109 22.7034 23.8537 22.7063C23.782 22.7119 23.7014 22.7158 23.6352 22.7191L20.4376 22.8744C20.4939 22.6621 20.5697 22.455 20.6643 22.2555C20.7916 21.9231 21.0407 21.6457 21.3658 21.4746C21.6795 21.3622 22.0087 21.2937 22.343 21.2713C22.5715 21.2429 22.7992 21.2134 23.0247 21.1721C23.5833 21.1106 24.1143 20.9075 24.5625 20.5839C25.0107 20.2603 25.3597 19.8281 25.573 19.3322C25.7278 18.8304 25.7574 18.3011 25.6597 17.7864C25.6312 17.6251 25.6208 17.4613 25.6287 17.2979C25.6647 17.2336 25.8407 17.0871 26.5806 16.8354C27.852 16.4537 29.1482 16.152 30.4611 15.9321C30.4598 16.0651 30.456 16.2058 30.4388 16.3783C30.3432 18.3318 29.7903 20.2402 28.8207 21.9638C27.4063 21.7043 25.9429 21.8547 24.6191 22.3956H24.6193Z" fill="white"/>
</svg>
