<svg width="92" height="110" viewBox="0 0 92 110" fill="none" xmlns="http://www.w3.org/2000/svg">
<path d="M44.303 92.1704L38.5052 109.287H36.167L32.6888 99.326L29.1234 109.287H26.7657L21.0845 92.1704H25.2682L28.0508 101.54L31.2392 92.1704H34.1284L37.2586 101.54L40.1672 92.1704H44.303Z" fill="white"/>
<path d="M54.8025 103.907H47.8725C48.0073 104.663 48.3392 105.282 48.8678 105.761C49.3965 106.241 49.9958 106.481 50.6658 106.481C51.8389 106.481 53.1347 106.066 54.552 105.237V107.963C54.0436 108.298 53.4273 108.603 52.704 108.877C51.9807 109.15 51.0589 109.287 49.9396 109.287C48.7302 109.287 47.701 109.003 46.8516 108.434C46.0022 107.865 45.3669 107.093 44.9457 106.118C44.5246 105.144 44.3138 104.039 44.3138 102.804C44.3138 101.585 44.5246 100.495 44.9457 99.532C45.3669 98.5692 46.0018 97.8139 46.8508 97.2653C47.7002 96.7172 48.7294 96.4429 49.9388 96.4429C50.7365 96.4429 51.5066 96.6595 52.2501 97.0932C52.9929 97.5268 53.6038 98.236 54.0837 99.2207C54.5623 100.206 54.8021 101.476 54.8021 103.032V103.907H54.8025ZM51.5475 101.745C51.5475 100.955 51.3908 100.324 51.0775 99.8524C50.7634 99.3809 50.3129 99.1449 49.7247 99.1449C49.1427 99.1449 48.6728 99.385 48.3144 99.8644C47.9552 100.344 47.7758 100.971 47.7758 101.744H51.5475V101.745Z" fill="white"/>
<path d="M67.5988 102.946C67.5988 104.385 67.3768 105.578 66.9329 106.525C66.489 107.472 65.9232 108.169 65.2345 108.616C64.5459 109.063 63.8445 109.286 63.1299 109.286C62.6148 109.286 62.1693 109.211 61.7931 109.061C61.4162 108.91 61.1231 108.748 60.914 108.573C60.7048 108.398 60.4878 108.188 60.2626 107.944V109.055H56.8009V92.1694H60.2626V97.3919C60.5201 97.1407 60.8743 96.9195 61.3248 96.7288C61.7754 96.5382 62.2962 96.4426 62.8885 96.4426C63.6796 96.4426 64.3781 96.6234 64.9832 96.9846C65.5879 97.3458 66.0819 97.835 66.4646 98.452C66.8474 99.0689 67.1321 99.7612 67.3186 100.528C67.505 101.296 67.5988 102.102 67.5988 102.946ZM63.9305 102.848C63.9305 101.784 63.7408 100.974 63.3622 100.418C62.9835 99.8612 62.5347 99.5828 62.0147 99.5828C61.4947 99.5828 60.9103 99.8472 60.2622 100.375V105.115C60.7499 105.7 61.3343 105.992 62.0147 105.992C62.4441 105.992 62.8711 105.771 63.2952 105.328C63.7193 104.886 63.9305 104.059 63.9305 102.848Z" fill="white"/>
<path d="M48.8397 7.34422C68.2209 16.0463 72.4472 0 72.4472 0C72.4472 0 68.7661 20.1267 51.7723 28.3481C48.3098 30.0255 46.1597 30.9246 46.1597 30.9246L18.321 17.4037L46.1601 6.02883C46.1597 6.02883 45.488 5.83938 48.8397 7.34422Z" fill="white"/>
<path d="M42.9159 66.286L16.9768 52.2936V23.436L42.9159 36.5731V66.286Z" fill="white"/>
<path d="M48.7501 66.286L74.6875 52.2936V23.436L48.7501 36.5731V66.286Z" fill="white"/>
<path d="M9.8683 82.3897C9.8683 83.4481 9.6542 84.364 9.22723 85.1375C8.80025 85.9109 8.20382 86.5031 7.43956 86.9141C6.6749 87.3247 5.79781 87.5306 4.80871 87.5306C4.5326 87.5306 4.19367 87.508 3.79191 87.4635C3.39015 87.4186 2.85695 87.2946 2.19231 87.0908C1.52726 86.8873 0.834931 86.5855 0.115733 86.1864V82.0372C0.789878 82.5647 1.45286 83.0033 2.1051 83.3522C2.75693 83.7014 3.45546 83.8756 4.20028 83.8756C4.88724 83.8756 5.33198 83.7315 5.53493 83.4432C5.73705 83.1553 5.83832 82.8851 5.83832 82.6331C5.83832 82.1784 5.66389 81.795 5.31586 81.4824C4.96784 81.1699 4.46192 80.847 3.7977 80.5138C3.06651 80.1242 2.42585 79.6996 1.87446 79.2408C1.32308 78.782 0.872957 78.2071 0.523692 77.5165C0.174426 76.8267 0 76.01 0 75.0677C0 74.158 0.176493 73.336 0.529892 72.6008C0.882877 71.8657 1.42269 71.2788 2.14891 70.8402C2.87472 70.402 3.76132 70.1821 4.80871 70.1821C5.55394 70.1821 6.24297 70.274 6.87578 70.4564C7.50859 70.6393 8.03063 70.8444 8.44189 71.0721C8.85275 71.2998 9.13588 71.4786 9.29005 71.6087V75.5689C8.7428 75.0739 8.13314 74.6316 7.46064 74.2416C6.78815 73.8516 6.06937 73.6568 5.30346 73.6568C4.80127 73.6568 4.43795 73.7787 4.21268 74.0225C3.98742 74.2663 3.87499 74.5661 3.87499 74.9236C3.87499 75.2567 3.98741 75.545 4.21309 75.7888C4.43877 76.0326 4.84177 76.3288 5.4225 76.6776C6.45087 77.2867 7.27382 77.8348 7.89134 78.3216C8.50844 78.8092 8.99245 79.3714 9.34296 80.0089C9.69346 80.6464 9.8683 81.4396 9.8683 82.3897Z" fill="white"/>
<path d="M22.1253 82.1511H15.1949C15.3301 82.9076 15.662 83.5258 16.1906 84.0056C16.7189 84.4854 17.3186 84.7251 17.9886 84.7251C19.1617 84.7251 20.457 84.3103 21.8748 83.4809V86.2077C21.3664 86.5425 20.7501 86.8472 20.0268 87.1207C19.303 87.3937 18.3817 87.5309 17.2624 87.5309C16.053 87.5309 15.0238 87.2467 14.1744 86.678C13.325 86.1092 12.6901 85.3375 12.2689 84.3626C11.8478 83.3878 11.637 82.2829 11.637 81.0482C11.637 79.8296 11.8473 78.739 12.2685 77.7762C12.6897 76.8133 13.325 76.058 14.174 75.5094C15.0234 74.9613 16.0526 74.687 17.262 74.687C18.0597 74.687 18.8298 74.9036 19.5729 75.3373C20.3157 75.771 20.9266 76.4801 21.4065 77.4648C21.8855 78.4499 22.1253 79.7204 22.1253 81.2764V82.1511ZM18.8703 79.989C18.8703 79.1991 18.7132 78.5685 18.3999 78.0966C18.0862 77.625 17.6352 77.3891 17.0475 77.3891C16.4655 77.3891 15.9951 77.6292 15.6368 78.1085C15.278 78.5883 15.0986 79.2151 15.0986 79.9886H18.8703V79.989Z" fill="white"/>
<path d="M41.358 87.299H37.8963V80.6981C37.8963 79.823 37.7814 79.1682 37.5512 78.7345C37.321 78.3009 36.9568 78.0842 36.4584 78.0842C35.9723 78.0842 35.5742 78.2687 35.2634 78.6377C34.9526 79.0067 34.6418 79.47 34.3309 80.0293V87.299H30.8693V80.6981C30.8693 79.8633 30.7622 79.2188 30.5489 78.7654C30.3348 78.3116 29.9562 78.0846 29.4123 78.0846C29.1531 78.0846 28.9155 78.1497 28.698 78.2794C28.4806 78.4092 28.3046 78.555 28.1686 78.7172C28.0326 78.8795 27.8673 79.1183 27.6734 79.4342C27.4795 79.7501 27.356 79.949 27.3043 80.0297V87.2994H23.8426V74.8929H27.3043V76.6914C27.8263 75.9909 28.3579 75.4814 28.8993 75.1635C29.4408 74.846 30.0658 74.687 30.7746 74.687C31.1098 74.687 31.4289 74.7261 31.7315 74.8031C32.0341 74.8802 32.3325 75.0128 32.6259 75.2002C32.919 75.3875 33.1852 75.6445 33.4237 75.9703C33.6618 76.296 33.8519 76.6749 33.9941 77.1069C34.5541 76.3088 35.1361 75.7059 35.7383 75.2982C36.3406 74.8905 37.0345 74.687 37.8207 74.687C38.6064 74.687 39.2653 74.8859 39.7973 75.2833C40.3284 75.6812 40.7215 76.2553 40.9761 77.006C41.2303 77.7568 41.358 78.6678 41.358 79.7394V87.299Z" fill="white"/>
<path d="M53.6274 86.6884C53.1202 86.9409 52.6515 87.1443 52.222 87.2988C51.7918 87.4528 51.2751 87.5306 50.6712 87.5306C50.0996 87.5306 49.7015 87.4021 49.4771 87.146C49.2527 86.8898 49.0919 86.5785 48.996 86.2119C48.6215 86.5949 48.2057 86.91 47.7477 87.1583C47.2893 87.4062 46.6892 87.5302 45.9481 87.5302C45.2322 87.5302 44.6531 87.3737 44.2117 87.0615C43.7698 86.7494 43.4602 86.3557 43.2829 85.8812C43.1052 85.4068 43.0167 84.9175 43.0167 84.4143C43.0167 83.6516 43.1697 83.021 43.4759 82.5219C43.7822 82.0232 44.1935 81.6155 44.7097 81.2988C45.2256 80.9821 45.9096 80.6538 46.7619 80.3124C47.2455 80.1176 47.6113 79.9698 47.8597 79.8685C48.1081 79.7672 48.2933 79.6881 48.4161 79.6312C48.5388 79.5744 48.6678 79.5015 48.8038 79.4122C48.8038 78.8125 48.7071 78.3422 48.5132 78.002C48.3194 77.6619 47.8998 77.4914 47.2546 77.4914C46.4928 77.4914 45.786 77.7026 45.1346 78.1248C44.4828 78.5469 43.886 79.0909 43.3437 79.7564V76.3885C43.7748 75.9968 44.2414 75.6764 44.7436 75.4268C45.2458 75.1781 45.7699 74.992 46.3176 74.8692C46.8648 74.7469 47.4187 74.6855 47.9792 74.6855C49.4015 74.6855 50.4712 75.0331 51.1891 75.7271C51.9071 76.421 52.2659 77.3777 52.2659 78.5959V83.383C52.2659 83.8377 52.2989 84.1771 52.3667 84.4003C52.4345 84.6239 52.5589 84.7351 52.7387 84.7351C52.9574 84.7351 53.2537 84.6177 53.6274 84.3822V86.6884ZM48.8038 84.3117V81.3791C47.9697 81.8008 47.3613 82.1801 46.9769 82.517C46.5925 82.8538 46.4007 83.3097 46.4007 83.8855C46.4007 84.299 46.4966 84.6153 46.6888 84.8343C46.8814 85.0534 47.1042 85.163 47.3575 85.163C47.5981 85.163 47.8378 85.0802 48.0751 84.9142C48.3136 84.7475 48.5558 84.5469 48.8038 84.3117Z" fill="white"/>
<path d="M65.4887 87.2989H62.0271V80.8801V80.6247C62.0271 79.9444 61.9382 79.3505 61.7601 78.844C61.5815 78.3378 61.1917 78.0842 60.5895 78.0842C60.3047 78.0842 60.0534 78.1513 59.8373 78.2847C59.6203 78.4181 59.4256 78.5903 59.2545 78.8012C59.0825 79.012 58.9387 79.2146 58.8217 79.4094C58.7056 79.6042 58.5853 79.8106 58.4625 80.0292V87.2989H55.0009V74.8924H58.4625V76.6909C59.0098 75.9492 59.5595 75.4299 60.1101 75.1325C60.6614 74.8352 61.2748 74.6865 61.9514 74.6865C64.3095 74.6865 65.4892 76.464 65.4892 80.0185V87.2989H65.4887Z" fill="white"/>
<path d="M75.3554 86.5881C74.9946 86.8084 74.4965 87.0209 73.862 87.2248C73.2276 87.4282 72.6204 87.5304 72.0409 87.5304C69.5526 87.5304 68.3089 85.9831 68.3089 82.8886V77.9293H66.7337V77.1641L71.3771 71.1855H71.7702V74.892H75.0938V77.9293H71.7702V81.9068C71.7702 82.3705 71.7929 82.7445 71.8379 83.0295C71.883 83.3144 72.0099 83.5521 72.2199 83.7427C72.429 83.9342 72.746 84.0294 73.1718 84.0294C73.7256 84.0294 74.4531 83.7374 75.3554 83.1526V86.5881Z" fill="white"/>
<path d="M80.5349 87.2992H77.0732V74.8927H80.5349V87.2992ZM80.2571 72.0284C80.2571 72.5386 80.1124 72.9719 79.8252 73.3281C79.5379 73.6844 79.1957 73.8627 78.7993 73.8627C78.5306 73.8627 78.2859 73.782 78.0656 73.6197C77.8453 73.4579 77.6709 73.2371 77.5432 72.9579C77.4154 72.6787 77.3518 72.3686 77.3518 72.0284C77.3518 71.5264 77.4923 71.0931 77.7734 70.7286C78.0553 70.3642 78.3967 70.1821 78.7993 70.1821C79.1957 70.1821 79.5379 70.3642 79.8252 70.7286C80.1124 71.0931 80.2571 71.5268 80.2571 72.0284Z" fill="white"/>
<path d="M91.3567 86.7351C91.067 86.8739 90.7611 87.0024 90.4387 87.121C90.1163 87.2396 89.7542 87.3368 89.3512 87.4146C88.9482 87.4921 88.5093 87.5308 88.0331 87.5308C86.9568 87.5308 86.0463 87.301 85.3014 86.8422C84.5566 86.3834 83.9825 85.8064 83.5787 85.1121C83.1757 84.4173 82.8967 83.7086 82.7417 82.9854C82.5867 82.2622 82.5098 81.6247 82.5098 81.072C82.5098 80.5197 82.5879 79.8818 82.7462 79.1586C82.9045 78.4354 83.1806 77.737 83.5737 77.0628C83.9676 76.3886 84.5368 75.824 85.282 75.3689C86.0272 74.9143 86.944 74.6865 88.0331 74.6865C88.7606 74.6865 89.3529 74.752 89.8109 74.8826C90.2676 75.0131 90.7322 75.1885 91.2017 75.4089V78.8691C90.0684 78.4144 89.1826 78.1871 88.5448 78.1871C87.9265 78.1871 87.3776 78.4214 86.8973 78.8901C86.4178 79.3592 86.1781 80.0861 86.1781 81.0724C86.1781 81.7272 86.2967 82.2787 86.5348 82.7272C86.7729 83.1761 87.0759 83.5055 87.4429 83.7151C87.8099 83.9248 88.1774 84.0302 88.5448 84.0302C88.8929 84.0302 89.2884 83.9655 89.7332 83.8354C90.1779 83.7053 90.719 83.5187 91.3567 83.2753V86.7351Z" fill="white"/>
</svg>
