<svg width="197" height="136" viewBox="0 0 197 136" fill="none" xmlns="http://www.w3.org/2000/svg">
<path d="M0.00187302 35.7348C0.00187302 35.7348 58.3697 28.2038 60.0165 27.9369C62.5442 27.5256 64.7857 27.0438 66.8785 26.4693C71.5993 25.1796 75.9448 23.2116 79.7921 20.6172C83.4833 18.1526 86.9143 14.5651 90.3156 10.6292C92.4753 8.12377 94.7466 4.85869 96.8654 1.70843V0.185059C94.3525 3.89495 91.8769 7.09339 89.3306 9.9138C85.9553 13.6608 82.4165 16.7222 78.8071 19.02C75.0824 21.4142 70.8931 23.1968 66.3469 24.3272C64.3099 24.8387 62.1316 25.2537 59.6782 25.5947C58.065 25.8206 56.3996 25.9951 54.79 26.1618C54.147 26.2324 0.00187302 31.9582 0.00187302 31.9582V35.7348Z" fill="#BDBCBC"/>
<path d="M78.2747 25.9754C74.6207 28.0694 70.4016 29.6038 65.7328 30.5304C63.7404 30.9343 61.5658 31.2604 59.0901 31.5273C57.633 31.6865 56.1684 31.8125 54.7001 31.9386C53.9083 32.0053 53.1166 32.0756 52.3248 32.1462C34.4375 33.7473 16.6431 35.4484 0.00111008 37.0569V40.8335C16.7732 38.8173 34.694 36.6789 52.5738 34.6627C53.3693 34.5702 54.1648 34.4812 54.9603 34.3958C56.4249 34.2363 57.8932 34.0735 59.3615 33.8808C61.9078 33.5435 64.1344 33.1543 66.1678 32.6947C71.0187 31.6125 75.3976 29.9077 79.1855 27.621C82.9473 25.3713 86.2705 22.2173 89.8465 18.3629C92.0731 15.965 94.5487 12.5776 96.8683 9.39767V8.01147C94.1361 11.7028 91.5452 14.805 88.9841 17.4512C85.4936 21.0573 81.8916 23.9222 78.2747 25.9754Z" fill="#BDBCBC"/>
<path d="M88.4893 25.0506C84.9282 28.3084 81.211 30.8693 77.438 32.6631C73.7468 34.4384 69.6206 35.6837 64.8143 36.4694C62.833 36.7992 60.677 37.0661 58.2273 37.2885L0.000749588 42.0546V45.8201L51.7594 40.3461L58.4541 39.6455C60.9781 39.3529 63.1787 39.0266 65.1785 38.6486C70.1559 37.7109 74.427 36.3137 78.2298 34.3716C82.118 32.4111 86.0024 29.1497 89.6156 25.6956C92.0392 23.3792 94.3736 20.3882 96.8679 17.2528V15.9963C93.987 19.5691 91.2364 22.5415 88.4893 25.0506Z" fill="#BDBCBC"/>
<path d="M74.41 44.6106C71.0199 46.5008 68.4847 47.5905 63.6449 48.0946C60.7194 48.4096 57.7122 48.5577 54.8017 48.7022C53.3965 48.7725 51.9877 48.8431 50.5788 48.9321C41.7839 49.4324 33.145 49.9884 24.3315 50.5591L0.00222778 52.1934V55.959L24.5769 53.713C32.5169 53.0014 41.743 52.1824 50.7498 51.4486L57.2996 50.9446C59.8571 50.7483 61.9536 50.5406 63.894 50.2886C68.8751 49.6474 73.1313 48.643 76.9005 47.2236C80.9598 45.7115 84.7885 43.3618 88.621 40.597C92.078 38.1064 96.862 33.1957 96.8658 33.1326V31.802C93.7396 34.8411 91.9404 36.5498 88.5169 38.7994C84.4242 41.4864 77.4507 42.9169 74.41 44.6106Z" fill="#BDBCBC"/>
<path d="M75.6478 51.7687C71.9752 52.8435 67.8416 53.57 63.0092 53.9888C61.0502 54.1593 58.9389 54.2889 56.5524 54.3853L50.0399 54.6705C33.8588 55.4191 17.752 56.2568 0.00222778 57.1944V60.9489C16.9602 59.6407 33.5762 58.3694 50.1885 57.1908L56.6788 56.7498C59.1879 56.5829 61.2659 56.4051 63.2211 56.1865C68.1725 55.6342 72.4101 54.7817 76.172 53.5809C80.339 52.2652 84.4019 50.3566 88.2455 47.9105C91.0818 46.1093 93.9217 43.9598 96.8658 41.3988V41.332C93.6206 44.0931 90.5278 44.7083 87.4463 46.5614C83.6696 48.8444 79.6996 50.5938 75.6478 51.7687Z" fill="#BDBCBC"/>
<path d="M75.0471 58.0093C71.3484 58.8728 67.3376 59.425 62.4271 59.7549C60.5351 59.8809 58.498 59.9736 56.0186 60.0513L49.5692 60.2811C33.3175 60.8926 16.8391 61.5968 3.8147e-05 62.3269V66.0813C16.7313 64.9435 33.1428 63.8354 49.6956 62.805L56.1302 62.4196C58.6542 62.2749 60.7097 62.1305 62.6018 61.9563C67.6015 61.4967 71.6941 60.8259 75.4783 59.8511C79.7233 58.7615 83.8494 57.1605 87.7414 55.0999C90.7523 53.5099 93.7559 51.5976 96.8672 49.2923V47.6875C93.5031 50.1076 90.2766 52.0829 87.05 53.6914C83.225 55.6001 79.1881 57.0531 75.0471 58.0093Z" fill="#BDBCBC"/>
<path d="M74.4962 64.1276C70.7827 64.8058 66.7867 65.2394 61.9134 65.4878C60.0808 65.5841 58.1181 65.6509 55.5533 65.7102L0.00293922 67.2075V70.9618L49.2599 68.3972L55.6425 68.0747C58.133 67.9561 60.17 67.8376 62.0547 67.693C66.9949 67.315 71.0578 66.7739 74.8419 65.9845C79.139 65.095 83.3098 63.7977 87.2352 62.1299C90.3985 60.792 93.5656 59.1613 96.8665 57.1785V55.6702C93.3425 57.716 89.9896 59.354 86.659 60.6697C82.7893 62.2041 78.6967 63.3678 74.4962 64.1276Z" fill="#BDBCBC"/>
<path d="M74.0602 70.2726C67.2428 71.1807 60.2284 71.2844 53.4407 71.3845C51.8869 71.4052 50.3294 71.429 48.7756 71.4625L0.00186729 72.3371V76.084L48.8611 73.9864C50.4074 73.9162 51.9612 73.853 53.515 73.7937C60.3473 73.5194 67.4138 73.2377 74.3241 72.1444C78.6955 71.4587 82.9035 70.4396 86.8326 69.1239C90.0852 68.038 93.453 66.6332 96.8654 64.9729V63.5349C93.2783 65.199 89.7506 66.5852 86.3642 67.6229C82.4834 68.8163 78.3461 69.7095 74.0602 70.2728" fill="#BDBCBC"/>
<path d="M73.6728 76.4559C67.2866 76.9822 60.7517 76.9821 54.4287 76.9821C52.4623 76.9821 50.4959 76.9822 48.5295 76.997C32.3707 77.0676 16.342 77.2009 0.00111008 77.3415V81.0886C15.5651 80.5624 32.0733 80.0138 48.5853 79.5245C50.5442 79.4578 52.5032 79.4098 54.4659 79.3579C60.8224 79.1987 67.3944 79.0354 73.8475 78.3387C78.3528 77.8569 82.4566 77.1491 86.3857 76.1817C89.813 75.3404 93.3332 74.2212 96.8683 72.8759V71.4971C93.218 72.8016 89.5826 73.869 86.04 74.6473C82.1481 75.5035 78.1038 76.0927 73.6728 76.4559Z" fill="#BDBCBC"/>
<path d="M73.4261 82.5516C70.7645 82.6554 67.8836 82.7072 64.6162 82.7072C63.3821 82.7072 62.1442 82.7014 60.9138 82.6895L48.3421 82.5377C39.7665 82.4745 31.2206 82.4597 23.2026 82.4526L0.00339127 82.4734V86.2165L23.2583 85.6125C31.2466 85.4162 39.8148 85.2123 48.3682 85.0603L60.9287 84.8933C64.3746 84.8414 68.9207 84.7376 73.5264 84.4374C78.0391 84.1448 82.1466 83.6962 86.0832 83.0699C89.6257 82.5065 93.2463 81.7468 96.8669 80.8239V79.4971C93.1459 80.3495 89.4473 81.0353 85.8602 81.5134C81.9459 82.036 77.8793 82.3732 73.4261 82.5511" fill="#BDBCBC"/>
<path d="M60.7677 88.4419L48.2407 88.3085C32.2566 88.0823 16.2911 87.7933 0.00222778 87.4894V91.2363C15.5477 91.1364 32.015 91.0175 48.2519 90.836L60.7863 90.6507C65.0091 90.5766 69.1464 90.499 73.3282 90.3617C81.9411 90.0875 89.6581 89.4832 96.8658 88.5307V87.2263C89.6283 88.0046 81.9039 88.4121 73.2837 88.4677C69.1167 88.5048 64.9422 88.4767 60.7677 88.4411" fill="#BDBCBC"/>
<path d="M96.8669 95.0677L0.00339127 92.6179V96.3648H96.8669V95.0677Z" fill="#BDBCBC"/>
<path d="M88.1448 32.1286C84.4647 35.0751 81.6247 37.1691 77.1194 38.9518C73.1978 40.5084 68.9862 41.142 64.1724 41.798C61.0759 42.2316 57.8382 42.8692 54.7455 43.0767C53.4742 43.1618 52.2029 43.2433 50.9353 43.3435L0.00186729 47.046V50.8042L51.1398 45.86L57.7713 45.2411C60.2284 45.0074 62.4141 44.7408 64.4437 44.411C69.3988 43.6179 73.6699 42.4096 77.4986 40.7084C81.4686 38.9628 85.4869 36.1017 89.2228 32.97C91.7616 30.8426 94.2076 28.1667 96.8654 25.2425V23.8972C93.65 27.2105 90.981 29.8605 88.1448 32.1286Z" fill="#BDBCBC"/>
<path d="M125.127 39.7612H40.2628V96.3622H125.127V39.7612Z" fill="#254AA5"/>
<path d="M83.6157 47.8105H86.5671L84.1882 49.6598L85.1137 52.5914L82.7421 50.7865L80.3705 52.5914L81.3073 49.6598L78.9059 47.8105H81.85L82.7421 44.9492L83.6157 47.8105Z" fill="#FFF200"/>
<path d="M83.7198 85.557H86.6787L84.2959 87.3395L85.2215 90.1563L82.8499 88.4219L80.4821 90.1563L81.4151 87.3395L79.0101 85.557H81.9578L82.8499 82.8069L83.7198 85.557Z" fill="#FFF200"/>
<path d="M93.0845 83.0575H96.0435L93.6607 84.8364L94.5863 87.6567L92.2147 85.9149L89.8468 87.6567L90.7799 84.8364L88.3748 83.0575H91.3226L92.2147 80.3037L93.0845 83.0575Z" fill="#FFF200"/>
<path d="M93.0845 50.3286H96.0435L93.6607 52.1075L94.5863 54.928L92.2147 53.1897L89.8468 54.928L90.7799 52.1075L88.3748 50.3286H91.3226L92.2147 47.5786L93.0845 50.3286Z" fill="#FFF200"/>
<path d="M100.038 57.2601H102.989L100.61 59.0352L101.536 61.8594L99.164 60.1212L96.7999 61.8594L97.733 59.0352L95.3279 57.2601H98.2719L99.164 54.5063L100.038 57.2601Z" fill="#FFF200"/>
<path d="M100.038 76.2199H102.989L100.61 78.0026L101.536 80.8267L99.164 79.0848L96.7999 80.8267L97.733 78.0026L95.3279 76.2199H98.2719L99.164 73.4663L100.038 76.2199Z" fill="#FFF200"/>
<path d="M102.643 66.5954H105.602L103.219 68.3743L104.144 71.1984L101.773 69.4564L99.405 71.1984L100.338 68.3743L97.933 66.5954H100.877L101.773 63.8452L102.643 66.5954Z" fill="#FFF200"/>
<path d="M74.0679 50.3515H77.0194L74.6404 52.1342L75.566 54.9546L73.1945 53.2126L70.8228 54.9546L71.7596 52.1342L69.3582 50.3515H72.3023L73.1945 47.6016L74.0679 50.3515Z" fill="#FFF200"/>
<path d="M67.3078 57.2831H70.2667L67.884 59.062L68.8058 61.8861L66.438 60.1442L64.0701 61.8861L64.9994 59.062L62.5981 57.2831H65.5458L66.438 54.533L67.3078 57.2831Z" fill="#FFF200"/>
<path d="M64.7987 66.6186H67.7539L65.3748 68.3975L66.2967 71.2217L63.9289 69.4835L61.5573 71.2217L62.4903 68.3975L60.0927 66.6186H63.0367L63.9289 63.8687L64.7987 66.6186Z" fill="#FFF200"/>
<path d="M67.3078 76.2432H70.2667L67.884 78.0259L68.8058 80.8501L66.438 79.1081L64.0701 80.8501L64.9994 78.0259L62.5981 76.2432H65.5458L66.438 73.4971L67.3078 76.2432Z" fill="#FFF200"/>
<path d="M74.1664 83.0809H77.118L74.7389 84.8598L75.657 87.6802L73.2929 85.942L70.9213 87.6802L71.858 84.8598L69.4567 83.0809H72.4007L73.2929 80.3271L74.1664 83.0809Z" fill="#FFF200"/>
<path d="M40.2628 136H125.134V131.171H40.2628V136Z" fill="#254AA5"/>
<path d="M137.205 0C137.205 0 154.899 27.4739 158.136 32.5254C161.37 37.5732 165.069 41.5686 178.161 44.2815C191.253 46.9944 196.952 48.2767 196.952 48.2767V49.2552C196.952 49.2552 188.633 47.5207 177.927 45.1858C167.225 42.8509 162.85 42.0614 157.969 35.4274C153.906 29.9052 137.205 6.43389 137.205 6.43389V0Z" fill="#BDBCBC"/>
<path d="M137.205 7.81177C137.205 7.81177 155.49 33.9294 157.917 37.1315C160.344 40.3337 163.612 45.4926 178.064 48.5391C181.797 49.3248 197 52.3083 197 52.3083V53.1347C197 53.1347 185.447 50.9148 178.064 49.3656C170.678 47.8164 162.92 46.4043 157.969 40.1779C153.471 34.5223 137.171 13.6639 137.171 13.6639L137.205 7.81177H137.205Z" fill="#BDBCBC"/>
<path d="M137.205 15.658C137.205 15.658 154.434 37.8542 157.917 42.2942C161.396 46.7305 166.195 50.396 178.064 52.6679C184.908 53.9799 196.948 56.1776 196.948 56.1776V57.004C196.948 57.004 186.398 55.0436 178.064 53.5463C169.73 52.049 162.85 50.5998 157.917 45.0813C153.59 40.2373 137.171 21.1986 137.171 21.1986L137.205 15.658H137.205Z" fill="#BDBCBC"/>
<path d="M137.171 23.3662C137.171 23.3662 154.615 43.5019 157.968 47.0932C163.191 52.6859 165.723 54.6131 178.064 56.9517C183 57.8894 196.947 60.3095 196.947 60.3095V61.1842C196.947 61.1842 185.398 59.1199 178.064 57.8301C170.733 56.5404 164.529 56.0585 157.916 49.7247C152.88 44.9029 137.204 28.5623 137.204 28.5623L137.17 23.3662H137.171Z" fill="#BDBCBC"/>
<path d="M137.205 31.3845C137.205 31.3845 153.311 47.8808 157.969 52.6173C162.909 57.6392 169.24 59.4997 178.012 61.0304C186.387 62.4906 196.948 64.1807 196.948 64.1807V65.1072C196.948 65.1072 187.03 63.5209 178.012 62.0125C169.169 60.53 162.98 59.7073 157.917 55.145C153.382 51.0608 137.205 36.236 137.205 36.236V31.3845Z" fill="#BDBCBC"/>
<path d="M137.205 38.8174C137.205 38.8174 152.523 52.7193 157.969 57.4706C162.98 61.8402 167.043 63.2004 178.064 65.109C189.09 67.0177 196.948 68.2038 196.948 68.2038V69.1859C196.948 69.1859 186.978 67.5848 178.012 66.1912C169.046 64.7977 163.333 64.2492 157.969 59.9982C151.78 55.0912 137.205 43.3611 137.205 43.3611V38.8174Z" fill="#BDBCBC"/>
<path d="M137.17 46.7668C137.17 46.7668 154.644 60.3092 157.916 62.6812C161.187 65.0569 165.51 67.8253 178.063 69.6006C190.512 71.3573 196.894 72.232 196.894 72.232V73.2661C196.894 73.2661 185.609 71.6613 178.063 70.7347C170.521 69.8045 164.737 69.4116 157.968 65.005C151.377 60.7169 137.203 50.9658 137.203 50.9658L137.17 46.7668H137.17Z" fill="#BDBCBC"/>
<path d="M137.17 54.3721C137.17 54.3721 154.696 65.7796 158.02 67.5882C161.347 69.3931 165.25 72.3358 178.063 73.9369C190.88 75.5342 196.894 76.257 196.894 76.257V77.2391C196.894 77.2391 186.293 76.1052 178.011 75.2268C169.729 74.3484 164.086 73.1624 157.916 69.8564C151.745 66.5542 137.203 58.2598 137.203 58.2598L137.17 54.3721H137.17Z" fill="#BDBCBC"/>
<path d="M137.205 61.9771C137.205 61.9771 152.717 70.2232 157.969 72.799C163.824 75.6713 168.887 77.05 178.064 78.1136C187.075 79.1662 196.948 80.1817 196.948 80.1817V81.1121C196.948 81.1121 187.818 80.1559 178.064 79.2515C168.396 78.3584 164.95 77.9432 157.969 74.9152C151.724 72.2097 137.171 65.5906 137.171 65.5906L137.205 61.9771H137.205Z" fill="#BDBCBC"/>
<path d="M137.205 69.7195C137.205 69.7195 149.408 74.8266 158.021 78.1659C166.496 81.4533 172.968 81.7312 178.116 82.2983C180.384 82.5467 196.896 84.2071 196.896 84.2071V85.1336C196.896 85.1336 187.03 84.3628 178.064 83.5882C169.098 82.8136 165.229 82.4874 157.969 80.1303C150.62 77.7472 137.171 73.1625 137.171 73.1625L137.205 69.7195H137.205Z" fill="#BDBCBC"/>
<path d="M137.205 77.5657C137.205 77.5657 149.583 81.3162 158.021 83.4843C166.459 85.6525 174.213 86.5309 178.116 86.7866C182.02 87.046 196.896 88.232 196.896 88.232V89.1104C196.896 89.1104 188.458 88.5471 178.064 87.8207C169.66 87.2351 162.909 86.616 157.969 85.5486C152.494 84.3664 137.171 80.8012 137.171 80.8012L137.205 77.5657H137.205Z" fill="#BDBCBC"/>
<path d="M137.171 85.3088C137.171 85.3088 147.326 87.0175 158.02 88.7483C166.039 90.0492 176.904 90.8683 178.064 90.9164C179.223 90.9683 196.947 92.1579 196.947 92.1579V93.0844C196.947 93.0844 185.606 92.5138 178.064 92.1061C170.209 91.6799 162.403 91.2166 157.968 90.7644C148.036 89.7489 137.171 88.4073 137.171 88.4073V85.3088Z" fill="#BDBCBC"/>
<path d="M137.205 93.3254C137.205 93.3254 153.17 93.911 158.021 94.0147C162.872 94.1185 196.948 95.4601 196.948 95.4601V96.3905L137.205 96.3534V93.3254Z" fill="#BDBCBC"/>
<path d="M45.2238 101.942C45.2238 101.767 45.3056 101.675 45.4914 101.675H50.4168C50.5767 101.675 50.6734 101.767 50.6734 101.927V102.757C50.6734 102.916 50.6065 102.998 50.4058 102.998H46.7517V105.292H49.9894C50.164 105.292 50.257 105.374 50.257 105.533V106.359C50.257 106.519 50.1901 106.6 49.9894 106.6H46.7517V109.228H50.4987C50.6584 109.228 50.7405 109.309 50.7405 109.484V110.295C50.7405 110.47 50.6735 110.536 50.4838 110.536H45.4916C45.3058 110.536 45.224 110.455 45.224 110.295V101.942H45.2238Z" fill="white"/>
<path d="M56.9479 110.537H55.9963C55.7956 110.537 55.7436 110.444 55.7436 110.285V109.87L55.7168 109.855C55.1927 110.218 54.2819 110.656 53.4678 110.656C51.6613 110.656 51.4865 109.588 51.4865 108.187V104.262C51.4865 104.103 51.5535 103.999 51.7394 103.999H52.717C52.8918 103.999 52.9587 104.092 52.9587 104.262V108.013C52.9587 108.817 53.1185 109.321 53.9364 109.321C54.5126 109.321 55.3935 108.895 55.7429 108.721V104.262C55.7429 104.103 55.7949 103.999 55.9957 103.999H56.9473C57.1332 103.999 57.2001 104.092 57.2001 104.262V110.285C57.2001 110.455 57.1332 110.537 56.9473 110.537" fill="white"/>
<path d="M59.8102 110.284C59.8102 110.443 59.7433 110.536 59.5574 110.536H58.5909C58.4051 110.536 58.3382 110.458 58.3382 110.284V104.265C58.3382 104.09 58.4051 103.998 58.5909 103.998H59.5426C59.7433 103.998 59.8102 104.105 59.8102 104.265V104.85L59.837 104.877C60.2384 104.507 61.1901 104.051 61.8183 103.932C61.9931 103.891 62.1117 103.932 62.1416 104.158L62.2344 105.051C62.2463 105.24 62.2612 105.318 61.9781 105.374C61.2309 105.518 60.2793 105.785 59.8109 105.985V110.284L59.8102 110.284Z" fill="white"/>
<path d="M65.4447 105.145C64.3073 105.145 64.0508 105.868 64.0508 107.254C64.0508 108.669 64.3071 109.362 65.4299 109.362C66.6491 109.362 66.8908 108.681 66.8908 107.254C66.8908 105.838 66.6638 105.145 65.4447 105.145ZM65.4299 110.645C62.7423 110.645 62.5676 108.681 62.5676 107.161C62.5676 105.905 62.8462 103.863 65.4299 103.863C68.0282 103.863 68.3888 105.586 68.3888 107.161C68.3888 108.681 68.2029 110.645 65.4299 110.645Z" fill="white"/>
<path d="M72.3897 105.225C71.8395 105.225 70.9957 105.611 70.5942 105.826V109.161C71.1964 109.336 71.6797 109.388 72.1369 109.388C73.0997 109.388 73.4342 108.895 73.4342 107.216C73.4342 105.518 73.0997 105.226 72.3897 105.226V105.225ZM72.282 110.659C71.8397 110.659 71.2264 110.577 70.6093 110.362L70.5944 110.377V112.727C70.5944 112.871 70.5573 112.994 70.3417 112.994H69.39C69.1783 112.994 69.1373 112.901 69.1373 112.727V104.266C69.1373 104.092 69.2042 103.999 69.39 103.999H70.3417C70.5314 103.999 70.5834 104.103 70.5834 104.266V104.666L70.6244 104.693C71.104 104.359 71.9626 103.892 72.7395 103.892C74.4903 103.892 74.9475 105.211 74.9475 107.228C74.9475 109.403 74.3974 110.66 72.2823 110.66" fill="white"/>
<path d="M77.2604 106.667H79.9107C79.9107 105.851 79.6951 105.066 78.5873 105.066C77.5948 105.066 77.3273 105.666 77.2604 106.667ZM77.2455 107.667C77.2865 109.016 77.7696 109.391 78.8661 109.391C79.3494 109.391 80.0966 109.294 80.6059 109.243C80.8476 109.216 80.9293 109.216 80.9701 109.469L81.0484 109.91C81.0894 110.11 81.0632 110.217 80.8218 110.325C80.2976 110.525 79.3237 110.658 78.6658 110.658C76.1083 110.658 75.7328 109.031 75.7328 107.293C75.7328 106 75.9746 103.865 78.5877 103.865C80.9816 103.865 81.4091 105.414 81.45 106.852C81.4648 107.334 81.331 107.668 80.7957 107.668H77.2457L77.2455 107.667Z" fill="white"/>
<path d="M86.1865 107.56H84.5547C83.8856 107.56 83.4543 107.801 83.4543 108.683C83.4543 109.269 83.6551 109.458 84.287 109.458C84.8632 109.458 85.6773 109.121 86.1865 108.828V107.56ZM86.2683 109.777C85.5992 110.284 84.6997 110.644 83.8038 110.644C82.3838 110.644 81.9712 109.869 81.9712 108.75C81.9563 107.186 82.8001 106.519 84.4877 106.519H86.2014V106.174C86.2014 105.374 85.904 105.092 84.8075 105.092C84.3651 105.092 83.5212 105.159 82.986 105.211C82.7183 105.252 82.6514 105.237 82.6142 105.051L82.4917 104.558C82.465 104.384 82.5066 104.277 82.8003 104.158C83.3765 103.958 84.4322 103.865 85.0641 103.865C87.3799 103.865 87.6587 104.811 87.6587 106.308V108.884C87.6587 109.428 87.7257 109.443 88.142 109.495C88.3427 109.51 88.3947 109.551 88.3947 109.695V110.259C88.3947 110.403 88.3019 110.496 88.075 110.536C87.8594 110.577 87.6476 110.603 87.4468 110.603C86.8149 110.603 86.4284 110.418 86.2945 109.792L86.2678 109.777L86.2683 109.777Z" fill="white"/>
<path d="M94.2295 110.537H93.2667C93.0918 110.537 93.0101 110.455 93.0101 110.285L93.0249 106.534C93.0249 105.745 92.8391 105.226 92.0622 105.226C91.5269 105.226 90.5901 105.652 90.2258 105.827V110.285C90.2258 110.444 90.159 110.537 89.9731 110.537H89.0215C88.8356 110.537 88.7687 110.455 88.7687 110.285V104.262C88.7687 104.092 88.8356 103.999 89.0215 103.999H89.9731C90.159 103.999 90.2258 104.092 90.2258 104.262V104.666C90.2407 104.666 90.2556 104.678 90.2669 104.678C90.7613 104.334 91.698 103.878 92.5158 103.878C94.3224 103.878 94.4859 105.067 94.4859 106.413V110.286C94.4859 110.445 94.43 110.538 94.2293 110.538" fill="white"/>
<path d="M48.7172 115.665C49.3715 115.665 50.4569 115.758 51.1669 116.05C51.3825 116.147 51.4604 116.254 51.4197 116.465L51.3007 117.014C51.2596 117.174 51.1931 117.24 50.9513 117.214C50.2971 117.133 49.4941 117.04 48.799 117.04C46.9776 117.04 46.71 118.508 46.71 120.242C46.71 121.992 47.0445 123.367 48.799 123.367C49.5722 123.367 50.2301 123.285 50.9513 123.192C51.2079 123.166 51.2598 123.233 51.3156 123.407L51.4197 123.915C51.4753 124.126 51.4078 124.248 51.1928 124.341C50.5385 124.619 49.3714 124.741 48.7171 124.741C45.7322 124.741 45.1039 122.54 45.1039 120.268C45.1039 117.989 45.6653 115.665 48.7171 115.665" fill="white"/>
<path d="M54.4582 119.228C53.3207 119.228 53.0642 119.951 53.0642 121.337C53.0642 122.753 53.3208 123.446 54.4433 123.446C55.6625 123.446 55.9041 122.764 55.9041 121.337C55.9041 119.921 55.6773 119.228 54.4582 119.228ZM54.4433 124.728C51.7557 124.728 51.581 122.764 51.581 121.245C51.581 119.988 51.8596 117.946 54.4433 117.946C57.0416 117.946 57.4022 119.669 57.4022 121.245C57.4022 122.764 57.2163 124.728 54.4433 124.728Z" fill="white"/>
<path d="M67.5208 124.621H66.5581C66.3687 124.621 66.3015 124.539 66.3015 124.368V120.577C66.3015 119.587 66.0636 119.31 65.3908 119.31C64.8964 119.31 64.0934 119.695 63.6808 119.91C63.6808 120.043 63.6927 120.284 63.6927 120.588V124.368C63.6927 124.528 63.6407 124.621 63.4399 124.621H62.4623C62.2877 124.621 62.2354 124.539 62.2354 124.368V120.51C62.2354 119.695 62.0198 119.31 61.3507 119.31C60.8824 119.31 60.1314 119.643 59.6222 119.91V124.368C59.6222 124.528 59.5553 124.621 59.3694 124.621H58.4066C58.2318 124.621 58.1649 124.539 58.1649 124.368V118.346C58.1649 118.175 58.2318 118.083 58.4066 118.083H59.3545C59.5553 118.083 59.6222 118.186 59.6222 118.346V118.735L59.637 118.75C60.1575 118.387 60.8935 117.986 61.6332 117.96C62.4064 117.96 63.0495 118.12 63.4658 118.894C64.1349 118.401 64.9639 117.96 65.8226 117.96C67.5882 117.96 67.7629 119.109 67.7629 120.444V124.368C67.7629 124.528 67.707 124.621 67.5212 124.621" fill="white"/>
<path d="M78.0123 124.621H77.0496C76.8601 124.621 76.7929 124.539 76.7929 124.368V120.577C76.7929 119.587 76.555 119.31 75.8822 119.31C75.3878 119.31 74.5849 119.695 74.1722 119.91C74.1722 120.043 74.1841 120.284 74.1841 120.588V124.368C74.1841 124.528 74.1321 124.621 73.9314 124.621H72.9538C72.7792 124.621 72.7268 124.539 72.7268 124.368V120.51C72.7268 119.695 72.5113 119.31 71.8422 119.31C71.3738 119.31 70.623 119.643 70.1137 119.91V124.368C70.1137 124.528 70.0467 124.621 69.8609 124.621H68.8982C68.7233 124.621 68.6564 124.539 68.6564 124.368V118.346C68.6564 118.175 68.7233 118.083 68.8982 118.083H69.846C70.0467 118.083 70.1137 118.186 70.1137 118.346V118.735L70.1285 118.75C70.6489 118.387 71.385 117.986 72.1247 117.96C72.8979 117.96 73.5409 118.12 73.9572 118.894C74.6264 118.401 75.4553 117.96 76.314 117.96C78.0797 117.96 78.2544 119.109 78.2544 120.444V124.368C78.2544 124.528 78.1985 124.621 78.0126 124.621" fill="white"/>
<path d="M80.8069 124.367C80.8069 124.512 80.7549 124.619 80.5651 124.619H79.6136C79.4277 124.619 79.3459 124.541 79.3459 124.367V118.333C79.3459 118.148 79.4277 118.081 79.6136 118.081H80.5651C80.7549 118.081 80.8069 118.189 80.8069 118.333V124.367ZM80.0969 117.121C79.4018 117.121 79.3089 116.732 79.3089 116.347C79.3089 115.921 79.454 115.583 80.0969 115.583C80.7549 115.583 80.8888 115.891 80.8888 116.347C80.8888 116.758 80.7662 117.121 80.0969 117.121Z" fill="white"/>
<path d="M84.1257 124.727C83.4566 124.727 82.5607 124.635 82.0515 124.435C81.7838 124.328 81.7281 124.205 81.769 123.994L81.8618 123.553C81.9028 123.338 81.9956 123.327 82.2112 123.353C82.7985 123.445 83.6571 123.512 84.1106 123.512C84.9693 123.512 85.3187 123.286 85.3187 122.752C85.3187 122.137 85.0883 122.004 84.2445 121.885C82.9323 121.696 81.7837 121.418 81.7837 119.962C81.7837 118.642 82.7985 117.949 84.3002 117.949C84.8467 117.949 85.7722 118.027 86.3335 118.242C86.5604 118.334 86.6569 118.442 86.616 118.642L86.5084 119.12C86.4674 119.309 86.3895 119.335 86.1479 119.309C85.5717 119.243 84.8208 119.161 84.3264 119.161C83.4715 119.161 83.2707 119.402 83.2707 119.91C83.2707 120.429 83.5904 120.495 84.4082 120.629C85.6795 120.818 86.8281 121.07 86.8281 122.66C86.8281 124.22 85.5048 124.728 84.1257 124.728" fill="white"/>
<path d="M89.7327 124.727C89.0636 124.727 88.1678 124.635 87.6585 124.435C87.3909 124.328 87.3351 124.205 87.376 123.994L87.4688 123.553C87.5099 123.338 87.6026 123.327 87.8182 123.353C88.4055 123.445 89.2642 123.512 89.7177 123.512C90.5763 123.512 90.9258 123.286 90.9258 122.752C90.9258 122.137 90.6953 122.004 89.8515 121.885C88.5393 121.696 87.3907 121.418 87.3907 119.962C87.3907 118.642 88.4055 117.949 89.9073 117.949C90.4537 117.949 91.3793 118.027 91.9406 118.242C92.1675 118.334 92.264 118.442 92.2231 118.642L92.1154 119.12C92.0747 119.309 91.9965 119.335 91.7549 119.309C91.1787 119.243 90.4279 119.161 89.9335 119.161C89.0785 119.161 88.8778 119.402 88.8778 119.91C88.8778 120.429 89.1975 120.495 90.0152 120.629C91.2865 120.818 92.4352 121.07 92.4352 122.66C92.4352 124.22 91.1118 124.728 89.7327 124.728" fill="white"/>
<path d="M94.7915 124.367C94.7915 124.512 94.7395 124.619 94.5498 124.619H93.5981C93.4123 124.619 93.3305 124.541 93.3305 124.367V118.333C93.3305 118.148 93.4123 118.081 93.5981 118.081H94.5498C94.7395 118.081 94.7915 118.189 94.7915 118.333V124.367ZM94.0816 117.121C93.3864 117.121 93.2935 116.732 93.2935 116.347C93.2935 115.921 93.4386 115.583 94.0816 115.583C94.7395 115.583 94.8733 115.891 94.8733 116.347C94.8733 116.758 94.7508 117.121 94.0816 117.121Z" fill="white"/>
<path d="M98.6589 119.228C97.5214 119.228 97.2687 119.951 97.2687 121.337C97.2687 122.753 97.5214 123.446 98.644 123.446C99.8633 123.446 100.105 122.764 100.105 121.337C100.105 119.921 99.878 119.228 98.6589 119.228ZM98.644 124.728C95.9565 124.728 95.7818 122.764 95.7818 121.245C95.7818 119.988 96.0604 117.946 98.644 117.946C101.242 117.946 101.603 119.669 101.603 121.245C101.603 122.764 101.417 124.728 98.644 124.728Z" fill="white"/>
<path d="M107.787 124.621H106.824C106.649 124.621 106.567 124.539 106.567 124.368L106.582 120.618C106.582 119.828 106.396 119.31 105.619 119.31C105.084 119.31 104.147 119.736 103.783 119.91V124.368C103.783 124.528 103.716 124.621 103.53 124.621H102.579C102.393 124.621 102.326 124.539 102.326 124.368V118.346C102.326 118.175 102.393 118.083 102.579 118.083H103.53C103.716 118.083 103.783 118.175 103.783 118.346V118.75C103.798 118.75 103.81 118.762 103.824 118.762C104.318 118.417 105.259 117.961 106.073 117.961C107.88 117.961 108.043 119.151 108.043 120.496V124.369C108.043 124.529 107.988 124.621 107.786 124.621" fill="white"/>
</svg>
