<svg width="75" height="88" viewBox="0 0 75 88" fill="none" xmlns="http://www.w3.org/2000/svg">
<g clip-path="url(#clip0)">
<path d="M66.258 0H15.5213C13.343 0.00243218 11.2547 0.853263 9.71446 2.36583C8.17421 3.87841 7.30781 5.9292 7.30533 8.06829V54.3186C5.22571 54.5585 3.31785 55.5691 1.9715 57.144C0.625145 58.7188 -0.0580925 60.7391 0.061365 62.792C0.180822 64.845 1.09396 66.7757 2.61423 68.1897C4.1345 69.6037 6.14718 70.3943 8.24109 70.4H51.5292C53.7074 70.3976 55.7957 69.5467 57.336 68.0342C58.8762 66.5216 59.7426 64.4708 59.7451 62.3317V16.1366H66.2112C68.3902 16.1427 70.4824 15.2985 72.0276 13.7897C73.5728 12.2809 74.4443 10.2311 74.4505 8.09127C74.4567 5.95142 73.5971 3.8968 72.0607 2.37939C70.5243 0.861986 68.437 0.00609295 66.258 0V0ZM8.24109 68.6816C6.52618 68.6816 4.8815 68.0126 3.66888 66.8218C2.45626 65.6309 1.77501 64.0158 1.77501 62.3317C1.77501 60.6476 2.45626 59.0325 3.66888 57.8417C4.8815 56.6508 6.52618 55.9818 8.24109 55.9818H46.4574C45.4784 56.7377 44.687 57.7019 44.1428 58.8019C43.5987 59.9019 43.3159 61.1088 43.3159 62.3317C43.3159 63.5546 43.5987 64.7616 44.1428 65.8615C44.687 66.9615 45.4784 67.9257 46.4574 68.6816H8.24109ZM58.014 8.06829V62.3317C58.014 63.5876 57.6347 64.8153 56.9242 65.8595C56.2137 66.9037 55.2039 67.7176 54.0223 68.1982C52.8408 68.6788 51.5407 68.8046 50.2864 68.5596C49.0321 68.3146 47.88 67.7098 46.9757 66.8218C46.0714 65.9337 45.4556 64.8023 45.2061 63.5705C44.9566 62.3388 45.0846 61.062 45.574 59.9017C46.0634 58.7414 46.8922 57.7497 47.9555 57.052C49.0189 56.3542 50.269 55.9818 51.5479 55.9818C51.6704 55.9943 51.7942 55.9813 51.9113 55.9438C52.0284 55.9063 52.1361 55.8451 52.2276 55.7641C52.319 55.6831 52.3921 55.5842 52.4422 55.4737C52.4922 55.3632 52.5181 55.2436 52.5181 55.1226C52.5181 55.0017 52.4922 54.8821 52.4422 54.7716C52.3921 54.6611 52.319 54.5621 52.2276 54.4811C52.1361 54.4001 52.0284 54.3389 51.9113 54.3014C51.7942 54.2639 51.6704 54.251 51.5479 54.2634H9.05519V8.06829C9.05767 6.38495 9.73971 4.77125 10.9518 3.58094C12.1639 2.39063 13.8071 1.72085 15.5213 1.71842H61.1581C60.1766 2.47215 59.3832 3.43592 58.8383 4.53631C58.2935 5.63671 58.0115 6.84471 58.014 8.06829ZM66.2299 14.4182H59.7451V8.06829C59.7451 6.81241 60.1243 5.58472 60.8348 4.54049C61.5453 3.49626 62.5552 2.68238 63.7367 2.20177C64.9182 1.72117 66.2184 1.59542 67.4726 1.84043C68.7269 2.08544 69.8791 2.69021 70.7834 3.57825C71.6877 4.4663 72.3035 5.59774 72.553 6.82949C72.8025 8.06125 72.6745 9.338 72.1851 10.4983C71.6957 11.6586 70.8669 12.6503 69.8035 13.348C68.7402 14.0458 67.4901 14.4182 66.2112 14.4182H66.2299ZM52.3994 11.3213C52.3994 11.5504 52.3068 11.7701 52.1418 11.9321C51.9768 12.0941 51.7531 12.1851 51.5198 12.1851H15.0253C14.792 12.1851 14.5683 12.0941 14.4033 11.9321C14.2384 11.7701 14.1457 11.5504 14.1457 11.3213C14.1457 11.0922 14.2384 10.8725 14.4033 10.7105C14.5683 10.5485 14.792 10.4575 15.0253 10.4575H51.4637C51.5838 10.45 51.7043 10.4667 51.8175 10.5068C51.9308 10.5468 52.0345 10.6092 52.1223 10.6902C52.21 10.7712 52.2799 10.869 52.3275 10.9775C52.3752 11.0861 52.3997 11.2031 52.3994 11.3213ZM52.3994 19.8123C52.3994 20.0414 52.3068 20.2612 52.1418 20.4232C51.9768 20.5851 51.7531 20.6762 51.5198 20.6762H15.0253C14.9028 20.6886 14.779 20.6757 14.6619 20.6382C14.5449 20.6007 14.4371 20.5394 14.3456 20.4584C14.2542 20.3774 14.1811 20.2785 14.131 20.168C14.081 20.0575 14.0551 19.9379 14.0551 19.8169C14.0551 19.696 14.081 19.5764 14.131 19.4659C14.1811 19.3554 14.2542 19.2565 14.3456 19.1755C14.4371 19.0945 14.5449 19.0332 14.6619 18.9957C14.779 18.9582 14.9028 18.9453 15.0253 18.9577H51.4637C51.583 18.9502 51.7027 18.9667 51.8154 19.0062C51.928 19.0456 52.0313 19.1072 52.1189 19.1872C52.2065 19.2672 52.2765 19.3639 52.3247 19.4714C52.373 19.5789 52.3984 19.6949 52.3994 19.8123ZM52.3994 28.3125C52.3994 28.5416 52.3068 28.7614 52.1418 28.9233C51.9768 29.0853 51.7531 29.1763 51.5198 29.1763H15.0253C14.792 29.1763 14.5683 29.0853 14.4033 28.9233C14.2384 28.7614 14.1457 28.5416 14.1457 28.3125C14.1457 28.0835 14.2384 27.8637 14.4033 27.7017C14.5683 27.5397 14.792 27.4487 15.0253 27.4487H51.4637C51.5838 27.4412 51.7043 27.458 51.8175 27.498C51.9308 27.538 52.0345 27.6004 52.1223 27.6814C52.21 27.7624 52.2799 27.8602 52.3275 27.9687C52.3752 28.0773 52.3997 28.1943 52.3994 28.3125ZM52.3994 36.8127C52.3997 36.931 52.3752 37.048 52.3275 37.1566C52.2799 37.2651 52.21 37.3629 52.1223 37.4439C52.0345 37.5249 51.9308 37.5873 51.8175 37.6273C51.7043 37.6673 51.5838 37.6841 51.4637 37.6765H14.9692C14.7359 37.6765 14.5122 37.5855 14.3472 37.4235C14.1822 37.2616 14.0896 37.0418 14.0896 36.8127C14.0896 36.5836 14.1822 36.3639 14.3472 36.2019C14.5122 36.0399 14.7359 35.9489 14.9692 35.9489H51.4637C51.5838 35.9414 51.7043 35.9581 51.8175 35.9982C51.9308 36.0382 52.0345 36.1006 52.1223 36.1816C52.21 36.2626 52.2799 36.3604 52.3275 36.4689C52.3752 36.5775 52.3997 36.6945 52.3994 36.8127ZM52.3994 45.3037C52.3994 45.5328 52.3068 45.7526 52.1418 45.9146C51.9768 46.0765 51.7531 46.1676 51.5198 46.1676H15.0253C14.9028 46.18 14.779 46.1671 14.6619 46.1296C14.5449 46.0921 14.4371 46.0308 14.3456 45.9498C14.2542 45.8688 14.1811 45.7699 14.131 45.6594C14.081 45.5489 14.0551 45.4293 14.0551 45.3083C14.0551 45.1874 14.081 45.0678 14.131 44.9573C14.1811 44.8468 14.2542 44.7478 14.3456 44.6669C14.4371 44.5859 14.5449 44.5246 14.6619 44.4871C14.779 44.4496 14.9028 44.4367 15.0253 44.4491H51.4637C51.583 44.4416 51.7027 44.4581 51.8154 44.4976C51.928 44.537 52.0313 44.5986 52.1189 44.6786C52.2065 44.7586 52.2765 44.8553 52.3247 44.9628C52.373 45.0703 52.3984 45.1863 52.3994 45.3037Z" fill="#199E48"/>
</g>
<defs>
<clipPath id="clip0">
<rect width="74.43" height="88" fill="white"/>
</clipPath>
</defs>
</svg>
