<svg width="73" height="90" viewBox="0 0 73 90" fill="none" xmlns="http://www.w3.org/2000/svg">
<path d="M69.3473 69.4688H4.24573C3.9331 69.4688 3.67963 69.2169 3.67963 68.9063V4.21875C3.67963 3.90811 3.9331 3.65625 4.24573 3.65625H69.3473C69.6599 3.65625 69.9134 3.90811 69.9134 4.21875V68.9063C69.9134 69.2169 69.6599 69.4688 69.3473 69.4688ZM4.81183 68.3438H68.7812V4.78125H4.81183V68.3438Z" fill="#199E48"/>
<path d="M69.3473 18.8438H4.24573C3.9331 18.8438 3.67963 18.5919 3.67963 18.2813V4.21875C3.67963 3.90811 3.9331 3.65625 4.24573 3.65625H69.3473C69.6599 3.65625 69.9134 3.90811 69.9134 4.21875V18.2813C69.9134 18.5919 69.6599 18.8438 69.3473 18.8438ZM4.81183 17.7188H68.7812V4.78125H4.81183V17.7188Z" fill="#199E48"/>
<path d="M12.7372 14.625C10.8643 14.625 9.34064 13.111 9.34064 11.25C9.34064 9.38897 10.8643 7.875 12.7372 7.875C14.6102 7.875 16.1338 9.38897 16.1338 11.25C16.1338 13.111 14.6102 14.625 12.7372 14.625ZM12.7372 9C11.4887 9 10.4728 10.0094 10.4728 11.25C10.4728 12.4906 11.4887 13.5 12.7372 13.5C13.9858 13.5 15.0016 12.4906 15.0016 11.25C15.0016 10.0094 13.9858 9 12.7372 9Z" fill="#199E48"/>
<path d="M24.0593 14.625C22.1863 14.625 20.6627 13.111 20.6627 11.25C20.6627 9.38897 22.1863 7.875 24.0593 7.875C25.9322 7.875 27.4559 9.38897 27.4559 11.25C27.4559 13.111 25.9322 14.625 24.0593 14.625ZM24.0593 9C22.8107 9 21.7949 10.0094 21.7949 11.25C21.7949 12.4906 22.8107 13.5 24.0593 13.5C25.3078 13.5 26.3237 12.4906 26.3237 11.25C26.3237 10.0094 25.3078 9 24.0593 9Z" fill="#199E48"/>
<path d="M14.1526 44.1562C13.9951 44.1562 13.8383 44.0912 13.7263 43.9641C13.5204 43.7304 13.5443 43.375 13.7795 43.1703L25.1016 33.3265C25.3366 33.1219 25.6944 33.1454 25.9003 33.3794C26.1062 33.6131 26.0823 33.9685 25.8471 34.1731L14.5251 44.0169C14.4178 44.1104 14.2851 44.1562 14.1526 44.1562Z" fill="#199E48"/>
<path d="M25.4743 54C25.342 54 25.2091 53.9541 25.1018 53.8609L13.7798 44.0172C13.5445 43.8125 13.5207 43.4572 13.7266 43.2233C13.9325 42.9895 14.29 42.966 14.5254 43.1703L25.8474 53.0141C26.0828 53.2187 26.1065 53.574 25.9006 53.8079C25.7887 53.935 25.6319 54 25.4743 54Z" fill="#199E48"/>
<path d="M59.4402 44.1562C59.3079 44.1562 59.1751 44.1104 59.0677 44.0171L47.7457 34.1734C47.5103 33.9688 47.4865 33.6134 47.6923 33.3797C47.8982 33.146 48.2559 33.1222 48.4912 33.3268L59.8133 43.1706C60.0486 43.3752 60.0724 43.7305 59.8666 43.9644C59.7547 44.0912 59.5977 44.1562 59.4402 44.1562Z" fill="#199E48"/>
<path d="M48.1187 53.9999C47.9611 53.9999 47.8043 53.9349 47.6923 53.8078C47.4865 53.5741 47.5103 53.2187 47.7457 53.014L59.0677 43.1702C59.3031 42.9658 59.6606 42.9894 59.8666 43.2233C60.0724 43.457 60.0486 43.8123 59.8133 44.0171L48.4912 53.8608C48.3838 53.9541 48.2511 53.9999 48.1187 53.9999Z" fill="#199E48"/>
<path d="M29.7199 59.6251C29.6415 59.6251 29.562 59.6089 29.486 59.5746C29.2014 59.4461 29.0756 59.1125 29.2049 58.8297L43.3574 27.8922C43.4868 27.6093 43.8225 27.4844 44.1071 27.613C44.3917 27.7415 44.5175 28.075 44.3882 28.3578L30.2357 59.2953C30.1407 59.5026 29.9351 59.6251 29.7199 59.6251Z" fill="#199E48"/>
</svg>
