<svg width="96" height="45" viewBox="0 0 96 45" fill="none" xmlns="http://www.w3.org/2000/svg">
<path d="M59.505 17.1312L68.06 3.6481C68.0969 3.58435 68.0969 3.55247 68.0969 3.48872V0.843098C68.0969 0.651848 67.9494 0.524349 67.7282 0.524349H44.2388C44.0913 0.524349 43.9438 0.619974 43.87 0.747474L34.9463 25.61L26.0963 0.747474C26.0758 0.684506 26.0325 0.628864 25.9728 0.588709C25.9131 0.548554 25.84 0.525999 25.7644 0.524349H19.4957C19.385 0.524349 19.2744 0.588099 19.2007 0.651849C19.1641 0.744868 19.1641 0.845706 19.2007 0.938725L22.7407 9.22622L16.4719 25.5781L7.99065 0.715598C7.9169 0.588098 7.80628 0.492474 7.6219 0.492474H1.2794C1.16877 0.492474 1.05815 0.556224 0.9844 0.619974C0.947525 0.683724 0.91065 0.779348 0.947525 0.874973L15.8082 44.225C15.845 44.3525 15.9925 44.4481 16.1769 44.4481C16.3613 44.4481 16.4719 44.3525 16.5457 44.225L25.875 18.5337L34.5038 44.225C34.5407 44.3525 34.6882 44.4481 34.8725 44.4481C35.0569 44.4481 35.1675 44.3525 35.2413 44.225L49.18 5.8156H59.3207L50.6919 18.3425C50.655 18.4062 50.655 18.4381 50.655 18.5018V21.4662C50.655 21.6575 50.8025 21.785 51.0238 21.785H55.8913C59.3207 21.785 61.7913 25.4506 61.7913 30.455C61.7913 35.6825 59.8369 38.2325 55.8175 38.2325C50.3969 38.2325 48.8113 33.3237 48.8113 33.1325C48.7966 33.0917 48.7727 33.0538 48.7411 33.021C48.7095 32.9882 48.6707 32.9611 48.6269 32.9412C48.5163 32.9093 48.4057 32.9093 48.3319 32.9412L43.7963 34.9175C43.6119 34.9812 43.575 35.1725 43.6119 35.3C46.2669 40.8781 50.4338 43.715 55.965 43.715C59.5493 43.715 68.8713 41.3243 68.8713 30.3275C68.8713 20.1912 61.6438 17.5775 59.7263 17.0675L59.505 17.1312ZM73.3332 25.0043H73.37C73.5544 24.9725 73.665 24.845 73.7388 24.6856C74.3288 11.5212 79.1963 6.8356 83.2157 6.8356C87.6407 6.8356 90.5169 11.7443 90.5169 11.8081C90.5907 11.9037 90.7013 11.9675 90.8119 11.9675C90.9225 11.9993 91.07 11.9356 91.1807 11.8081L95.0894 6.54872C95.1263 6.48497 95.1632 6.38935 95.1263 6.3256L93.9094 0.715598C93.8927 0.653511 93.8562 0.59671 93.8041 0.551638C93.752 0.506566 93.6862 0.475028 93.6144 0.460598C93.4669 0.428723 93.3194 0.524349 93.2457 0.619974L89.8163 6.03872C87.235 1.9906 83.6582 0.938725 81.8513 0.938725C78.6432 0.938725 74.5869 3.16997 73.075 7.31372C70.0513 15.6012 73.0382 24.6218 73.075 24.6856C73.0975 24.7476 73.1413 24.8022 73.2006 24.842C73.2599 24.8819 73.3319 24.9052 73.4069 24.9087L73.3332 25.0043ZM94.4257 31.3793C94.3888 31.22 94.2782 31.1243 94.0569 31.1243C93.8357 31.1243 93.6882 31.22 93.6882 31.3475C93.6513 31.4112 91.2175 39.3162 82.6257 39.3162C73.9969 39.3162 70.9363 32.1444 70.8994 32.0806C70.8257 31.9212 70.6413 31.8575 70.4569 31.8893C70.2725 31.9531 70.1619 32.1125 70.1988 32.2655C70.9363 34.9748 74.1075 43.8042 83.3263 43.8042C92.1763 43.8042 95.0157 36.0267 95.0157 35.9311V35.8036L94.3888 31.3475L94.4257 31.3793Z" fill="white"/>
</svg>
